<?xml version="1.0" encoding="utf-8"?>
<!-- Generator: Adobe Illustrator 16.0.0, SVG Export Plug-In . SVG Version: 6.00 Build 0)  -->
<!DOCTYPE svg PUBLIC "-//W3C//DTD SVG 1.1//EN" "http://www.w3.org/Graphics/SVG/1.1/DTD/svg11.dtd">
<svg version="1.1" id="圖層_1" xmlns="http://www.w3.org/2000/svg" xmlns:xlink="http://www.w3.org/1999/xlink" x="0px" y="0px"
	 width="156.045px" height="82.447px" viewBox="0 0 156.045 82.447" enable-background="new 0 0 156.045 82.447"
	 xml:space="preserve">
<polygon fill="#050505" points="53.196,19.037 42.636,33.981 41.177,19.037 28.979,19.037 21.985,41.803 30.802,41.803 
	35.099,26.086 36.801,41.803 43.828,41.803 55.048,26.376 49.716,41.803 58.545,41.803 65.491,19.037 "/>
<polygon fill="#050505" points="70.45,19.037 63.504,41.803 72.757,41.803 79.705,19.037 "/>
<polygon fill="#050505" points="104.338,19.037 100.522,32.724 93.366,19.037 84.214,19.037 77.267,41.803 86.258,41.803 
	90.157,28.117 97.229,41.803 106.383,41.803 113.331,19.037 "/>
<polygon fill="#050505" points="117.797,19.037 110.848,41.803 120.101,41.803 127.049,19.037 "/>
<path fill="#050505" d="M49.081,58.867H62.19v3.46H51.942c-6.969,0-9.358-3.126-9.358-5.748s2.254-3.962,2.254-3.962h-10.45
	c0,0-2.545,4.569,1.365,9.877c4.276,5.803,14.873,5.803,14.873,5.803h20.648v-9.43V54.57v-1.003H50.698L49.081,58.867z"/>
<path fill="#050505" d="M52.353,44.108c0,0-12.727-0.368-16.6,6.139h56.523v18.051h9.086V50.246l16.045-0.003l1.873-6.139
	L52.353,44.108z"/>
<polygon fill="#050505" points="131.147,16.53 132.243,16.53 132.243,19.816 133.169,19.816 133.169,16.53 134.282,16.53 
	134.282,15.759 131.147,15.759 "/>
<path fill="#050505" d="M138.948,15.758h-1.205l-0.438,1.35c-0.133,0.451-0.271,0.986-0.387,1.456h-0.02
	c-0.092-0.476-0.218-0.981-0.345-1.45l-0.399-1.354h-1.229l-0.26,4.057h0.854l0.072-1.541c0.029-0.505,0.047-1.131,0.072-1.68h0.013
	c0.097,0.53,0.234,1.107,0.368,1.583l0.436,1.573h0.721l0.496-1.583c0.158-0.477,0.328-1.055,0.455-1.572h0.019
	c0,0.591,0.021,1.181,0.036,1.667l0.061,1.553h0.9L138.948,15.758z"/>
</svg>
